<svg width="196" height="37" viewBox="0 0 196 37" fill="none" xmlns="http://www.w3.org/2000/svg">
<path d="M20.0187 30.8444C20.0686 30.8161 20.1086 30.8396 20.1086 30.8972V32.8923C20.1084 32.9499 20.0687 33.0205 20.0187 33.0495L13.6584 36.7204C13.6083 36.7494 13.5676 36.7263 13.5675 36.6687V34.6735C13.5675 34.6158 13.6083 34.5453 13.6584 34.5163L20.0187 30.8444ZM20.0187 26.1355C20.0686 26.1068 20.1086 26.1306 20.1086 26.1882V28.1823C20.1086 28.2399 20.0686 28.3104 20.0187 28.3396L13.6584 32.0114C13.6084 32.0403 13.5677 32.0171 13.5675 31.9597V29.9646C13.5675 29.9069 13.6084 29.8364 13.6584 29.8073L20.0187 26.1355ZM21.8644 18.2829L23.592 19.281C23.6419 19.3098 23.6826 19.3795 23.6828 19.4372V26.781C23.6828 26.8045 23.6746 26.8208 23.6632 26.8317V30.8347C23.6632 30.8926 23.6224 30.9631 23.5724 30.9919L21.8449 31.9899C21.7948 32.0189 21.7541 31.995 21.7541 31.9372V20.528C21.7541 20.504 21.7618 20.4782 21.7736 20.4538V18.3357C21.7736 18.2779 21.8144 18.2542 21.8644 18.2829ZM30.0216 22.9929L31.7492 23.9899C31.7991 24.0189 31.84 24.0894 31.84 24.1472V31.4909C31.8398 31.5484 31.7991 31.5713 31.7492 31.5427L30.0216 30.5456C29.9714 30.5166 29.9308 30.4461 29.9308 30.3884V23.0446C29.931 22.987 29.9715 22.964 30.0216 22.9929ZM102.009 12.8552C103.925 12.8552 105.549 13.5006 106.976 14.8278C108.402 16.1553 109.095 17.8895 109.095 20.1228V22.7839H97.8644L97.88 23.3357C97.9166 24.7775 98.349 25.9018 99.1662 26.6774C100.056 27.4843 101.181 27.8912 102.508 27.8913C103.981 27.8913 105.314 27.3441 106.481 26.2663L108.626 28.0944C107.83 28.9534 106.923 29.5987 105.944 29.989C104.581 30.5304 103.075 30.7496 101.612 30.5778C100.03 30.3902 98.4682 29.7758 97.2189 28.7868C95.1575 27.157 94.9074 24.2356 94.9074 21.8044C94.9075 18.4105 95.6724 16.0468 97.1818 14.7868C98.7542 13.5009 100.379 12.8494 102.009 12.8493V12.8552ZM156.654 12.8552C158.57 12.8552 160.195 13.5006 161.621 14.8278C163.048 16.1553 163.74 17.8895 163.74 20.1228V22.7839H152.51L152.526 23.3357C152.562 24.7774 152.995 25.9018 153.812 26.6774C154.702 27.4844 155.827 27.8912 157.154 27.8913C158.628 27.8912 159.961 27.344 161.127 26.2663L163.272 28.0944C162.475 28.9534 161.569 29.5987 160.59 29.989C159.226 30.5303 157.722 30.7495 156.259 30.5778C154.676 30.3903 153.114 29.7759 151.864 28.7868C149.803 27.157 149.553 24.2356 149.553 21.8044C149.553 18.4102 150.319 16.0467 151.828 14.7868C153.401 13.501 155.025 12.8494 156.654 12.8493V12.8552ZM192.712 12.9587C193.847 12.9587 194.951 13.3332 196.003 14.0671L193.806 16.696H193.801C193.02 16.1756 192.233 15.9158 191.463 15.9157C190.5 15.9158 189.609 16.2435 188.828 16.8942C188.027 17.571 187.62 18.6235 187.62 20.029V30.53H184.663V13.156H187.62V15.6755L188.558 14.6501C189.599 13.5102 190.958 12.9588 192.712 12.9587ZM172.873 12.6872C173.883 12.6872 174.8 12.7866 175.597 12.9792C176.419 13.177 177.164 13.49 177.81 13.9167L177.815 13.9108C179.033 14.7751 179.642 16.2129 179.653 18.2849V30.3112H176.799V28.073L176.685 28.2185C176.451 28.5204 176.216 28.8227 175.982 29.1247C175.773 29.3954 175.56 29.6348 175.274 29.822C174.774 30.1499 174.18 30.3119 173.597 30.4108C173.134 30.4835 172.628 30.5251 172.082 30.5251C170.198 30.478 168.755 29.9674 167.797 29.0095L167.292 28.5046C166.569 27.6405 166.215 26.5991 166.215 25.3396C166.215 23.9133 166.657 22.7515 167.563 21.778C168.469 20.8305 169.823 20.336 171.582 20.3151H176.789V18.0866C176.805 17.3787 176.586 16.7898 176.149 16.3474C175.539 15.7334 174.555 15.4314 173.134 15.4314H172.853C172.442 15.4314 172.046 15.4526 171.697 15.489C171.328 15.5306 170.978 15.6033 170.671 15.7126L169.536 16.6081L167.24 14.9108C168.469 13.4167 170.177 12.6873 172.457 12.6872H172.873ZM132.384 12.6823C133.034 12.6824 133.659 12.7603 134.242 12.906C134.83 13.0569 135.388 13.2656 135.908 13.531C136.429 13.7912 136.918 14.1143 137.371 14.4733C137.741 14.77 138.09 15.0934 138.412 15.4421L136.226 17.3786C135.174 16.2232 133.93 15.6395 132.525 15.6394C130.234 15.6395 127.505 16.687 127.505 21.5857C127.505 26.4844 130.234 27.5103 132.525 27.5105C133.982 27.5103 135.226 26.927 136.241 25.7663L138.412 27.7077C138.1 28.0462 137.746 28.3745 137.371 28.6765V28.6716C136.924 29.0308 136.434 29.3483 135.908 29.614C135.388 29.8794 134.831 30.088 134.242 30.239C133.659 30.3899 133.034 30.4626 132.384 30.4626C130.416 30.4625 128.578 29.7752 126.933 28.4167C125.34 27.0682 124.532 24.7712 124.532 21.5798C124.533 18.3887 125.34 16.0922 126.933 14.7595C128.547 13.3801 130.38 12.6824 132.384 12.6823ZM75.8312 8.63643H63.4035V16.5407H73.9992V19.321H63.4035V27.4733H75.8312V30.447H60.1965V5.62276H75.8312V8.63643ZM85.0881 26.3503L85.5988 24.8142C86.2755 22.7786 86.9518 20.7527 87.634 18.738C88.2899 16.7963 88.9462 14.8441 89.5968 12.8815H92.716L86.3429 30.2556H83.8234L77.466 12.8815H80.5793L85.0881 26.3503ZM121.175 12.6823C122.31 12.6823 123.413 13.0579 124.465 13.7917L122.268 16.4206H122.263C121.482 15.9002 120.695 15.6394 119.925 15.6394C118.962 15.6395 118.072 15.9682 117.291 16.6189C116.49 17.2956 116.083 18.3472 116.083 19.7526V30.2546H113.126V12.8806H116.083V15.4001L117.02 14.3747C118.061 13.2346 119.421 12.6824 121.175 12.6823ZM144.919 25.9226H144.925C144.925 26.9168 145.555 27.5101 146.616 27.5105H147.518V30.2546H146.241C145.018 30.2545 143.977 29.9524 143.139 29.3591C142.363 28.7865 141.962 27.7288 141.962 26.2243V5.60713H144.919V25.9226ZM20.0187 21.4255C20.0686 21.397 20.1086 21.4206 20.1086 21.4782V23.4733C20.1084 23.5182 20.0833 23.5696 20.049 23.6042C20.044 23.6177 20.0358 23.6318 20.0177 23.6423L10.1369 29.3464C10.0868 29.3751 10.0053 29.3751 9.95524 29.3464L8.2277 28.3493C8.17797 28.3204 8.17808 28.2738 8.2277 28.2448L13.6183 25.1315C13.6304 25.1176 13.644 25.1057 13.6584 25.0974L20.0187 21.4255ZM25.9425 20.6374L27.6701 21.6355C27.7201 21.6644 27.7609 21.7349 27.7609 21.7927V29.1355C27.7609 29.1932 27.7201 29.2172 27.6701 29.1882L25.9425 28.1911C25.8926 28.1621 25.8518 28.0916 25.8517 28.0339V20.6901C25.8517 20.6324 25.8927 20.6087 25.9425 20.6374ZM172.228 22.653C169.422 22.7417 168.849 24.0742 168.86 25.1726C168.86 25.8648 169.167 26.4791 169.776 26.9997C170.374 27.5254 171.27 27.7858 172.509 27.7858H172.645C173.706 27.7858 174.535 27.6869 175.154 27.489C175.545 27.3642 175.878 27.1092 176.117 26.7761C176.456 26.3076 176.695 25.761 176.758 25.1833C176.784 24.9176 176.799 24.6255 176.799 24.3132V22.653H172.228ZM1.76481 22.5232C1.81483 22.4943 1.89637 22.4943 1.94645 22.5232L8.30583 26.195C8.35588 26.2238 8.35588 26.2708 8.30583 26.2995L6.57829 27.2976C6.52831 27.3263 6.44761 27.3263 6.39762 27.2976L0.0372712 23.6257C-0.0125043 23.5969 -0.012343 23.5501 0.0372712 23.5212L1.76481 22.5232ZM5.84391 20.1687C5.89399 20.1398 5.97551 20.1398 6.02555 20.1687L12.3849 23.8405C12.4349 23.8694 12.4348 23.9161 12.3849 23.945L10.6574 24.9421C10.6073 24.9711 10.5258 24.9711 10.4757 24.9421L4.11637 21.2712C4.06632 21.2423 4.06632 21.1947 4.11637 21.1657L5.84391 20.1687ZM4.69645 14.6794L14.5773 20.3835C14.5925 20.3923 14.6058 20.4057 14.6183 20.4206L16.464 21.486C16.5139 21.5149 16.514 21.5617 16.464 21.5905L14.7365 22.5876C14.6864 22.6165 14.6049 22.6165 14.5548 22.5876L8.19547 18.9157C8.18049 18.9071 8.17121 18.8964 8.1652 18.8855L4.69645 16.8835C4.64641 16.8546 4.60563 16.7841 4.60563 16.7263V14.7312C4.60575 14.6735 4.64645 14.6506 4.69645 14.6794ZM21.6867 14.1794C21.7368 14.1505 21.8183 14.1505 21.8683 14.1794L28.2277 17.8513C28.23 17.8526 28.2315 17.8548 28.2336 17.8562L31.7443 19.8835C31.7943 19.9124 31.835 19.983 31.8351 20.0407V22.0358C31.8351 22.0936 31.7943 22.1175 31.7443 22.0886L21.8644 16.3835C21.8605 16.3813 21.8574 16.3774 21.8537 16.3747L19.9591 15.281C19.9092 15.2521 19.9091 15.2054 19.9591 15.1765L21.6867 14.1794ZM102.014 15.6091C100.843 15.6092 99.8583 16.0001 99.0929 16.7653C98.7289 17.1244 98.4424 17.5823 98.2394 18.1286C98.0417 18.6543 97.9215 19.2483 97.8849 19.8884L97.8488 20.4567H106.158L106.121 19.8786C106.033 18.5199 105.606 17.4574 104.861 16.7233C104.107 15.9843 103.185 15.6091 102.014 15.6091ZM156.654 15.6091C155.483 15.6092 154.499 16.0001 153.734 16.7653C153.369 17.1244 153.083 17.5824 152.88 18.1286C152.682 18.6543 152.562 19.2483 152.526 19.8884L152.489 20.4567H160.799L160.762 19.8786C160.673 18.5199 160.247 17.4574 159.502 16.7233C158.747 15.9844 157.826 15.6091 156.654 15.6091ZM14.5773 4.74385C14.6273 4.71498 14.6681 4.7379 14.6681 4.79561V18.4314C14.6681 18.4892 14.6274 18.513 14.5773 18.4841L12.8498 17.487C12.7998 17.4582 12.7591 17.3875 12.759 17.3298V5.89815C12.759 5.84042 12.7998 5.76989 12.8498 5.74092L14.5773 4.74385ZM25.7648 11.8249C25.8148 11.796 25.8965 11.796 25.9465 11.8249L32.3058 15.4968C32.3557 15.5257 32.3558 15.5724 32.3058 15.6013L30.5783 16.5983C30.5283 16.6272 30.4466 16.6272 30.3966 16.5983L24.0373 12.9265C23.9872 12.8976 23.9872 12.8509 24.0373 12.822L25.7648 11.8249ZM8.77165 7.57881L10.4992 8.57686C10.5491 8.60571 10.5898 8.67535 10.59 8.73311V16.0769C10.59 16.1347 10.5492 16.1585 10.4992 16.1296L8.77165 15.1315C8.72183 15.1026 8.68102 15.0329 8.68083 14.9753V7.63155C8.68083 7.57384 8.72168 7.55009 8.77165 7.57881ZM26.2843 7.42061C26.3343 7.39171 26.416 7.39171 26.466 7.42061L28.1935 8.41768C28.2435 8.44657 28.2435 8.49325 28.1935 8.52217L18.3136 14.2273C18.2932 14.239 18.267 14.2436 18.2404 14.2458L16.4035 15.3073C16.3536 15.3359 16.3127 15.3123 16.3127 15.2546V13.2595C16.3128 13.2017 16.3535 13.1311 16.4035 13.1023L22.7638 9.43135C22.7838 9.41986 22.8016 9.41755 22.8166 9.42159L26.2843 7.42061ZM29.8429 9.46944C29.8931 9.4406 29.9743 9.44069 30.0246 9.46944L36.384 13.1413C36.4342 13.1702 36.4342 13.2179 36.384 13.2468L34.6564 14.2439C34.6065 14.2726 34.5257 14.2725 34.4757 14.2439L28.1154 10.572C28.0657 10.5431 28.0657 10.4964 28.1154 10.4675L29.8429 9.46944ZM4.69254 5.22432L6.42008 6.22139C6.47011 6.25028 6.51086 6.32081 6.5109 6.37862V13.7224C6.51085 13.7801 6.4701 13.803 6.42008 13.7741L4.69254 12.7771C4.64258 12.7481 4.60172 12.6776 4.60172 12.6198V5.27706C4.60172 5.2193 4.64255 5.1955 4.69254 5.22432ZM22.7638 4.72139C22.8137 4.69282 22.8537 4.71647 22.8537 4.77413V6.76827C22.8537 6.82593 22.8137 6.89645 22.7638 6.92549L16.4035 10.5974C16.3535 10.6262 16.3127 10.6024 16.3127 10.5446V8.55049C16.3127 8.49273 16.3535 8.42223 16.4035 8.39327L22.7638 4.72139ZM22.7629 0.0124079C22.8128 -0.0164226 22.8535 0.00668271 22.8537 0.0641657V2.05928C22.8537 2.11709 22.8129 2.1876 22.7629 2.21651L16.4035 5.88838C16.3534 5.91728 16.3127 5.89348 16.3127 5.83565V3.84151C16.3127 3.78371 16.3534 3.71318 16.4035 3.68428L22.7629 0.0124079Z" fill="black"/>
</svg>
