<svg width="159" height="49" viewBox="0 0 159 49" fill="none" xmlns="http://www.w3.org/2000/svg">
<path d="M115.42 30.9922C116.087 30.9659 116.75 31.1055 117.351 31.3975C117.951 31.6896 118.47 32.1258 118.861 32.667C119.736 33.9627 120.166 35.5071 120.087 37.0684C120.151 38.7118 119.662 40.3293 118.698 41.6621C118.301 42.2306 117.77 42.6934 117.153 43.0107C116.536 43.328 115.852 43.4905 115.158 43.4834C114.281 43.5277 113.409 43.3191 112.646 42.8828C111.972 42.4266 111.421 41.8111 111.042 41.0908V46.832C111.042 47.0566 111.218 47.326 111.569 47.6484C111.92 47.9709 112.178 48.126 112.337 48.126H113.108V49H106.804V48.0898H107.571C107.881 48.0247 108.159 47.8554 108.359 47.6113C108.626 47.414 108.805 47.1216 108.861 46.7949V33.4463C108.861 33.2585 108.694 33.001 108.359 32.6826C108.159 32.4387 107.88 32.2702 107.571 32.2051H106.804V31.2461H110.679L111.062 33.7363C111.499 32.8966 112.13 32.1744 112.904 31.6299C113.659 31.1649 114.534 30.9317 115.42 30.96V30.9922ZM151.929 32.2051H151.21C151.051 32.2051 150.834 32.3642 150.564 32.6826C150.34 32.901 150.196 33.1895 150.156 33.5L153.015 39.3877L155.661 33.4834C155.661 33.3298 155.629 33.1777 155.567 33.0371C155.506 32.8966 155.415 32.7705 155.302 32.667C155.032 32.3485 154.816 32.1885 154.656 32.1885H153.893V31.2949H158.772V32.2051H158.196C158.07 32.2053 157.837 32.3724 157.502 32.707C157.248 32.9491 157.017 33.2131 156.809 33.4951L152.79 42.2051L149.201 48.9062L148.196 48.3789L151.786 41.8213L147.576 33.5449C147.375 33.2336 147.124 32.9569 146.833 32.7275C146.425 32.3768 146.172 32.2016 146.045 32.2012H145.469V31.2949H151.929V32.2051ZM64.7373 24.3936C65.6017 24.3738 66.4627 24.5121 67.2773 24.8018C67.9624 25.072 68.6922 25.2115 69.4287 25.2109C69.6584 25.2222 69.8878 25.1797 70.0986 25.0879C70.2764 24.9967 70.4377 24.8764 70.5762 24.7324H71.2461V31.2461H70.4297C70.2916 29.9319 69.7767 28.6849 68.9473 27.6562C68.5044 26.9738 67.8928 26.417 67.1719 26.04C66.4508 25.6631 65.6443 25.4791 64.8311 25.5049C64.1376 25.468 63.4435 25.5743 62.793 25.8174C62.1426 26.0604 61.5491 26.4346 61.0498 26.917C59.9947 28.187 59.4174 29.7864 59.417 31.4375V31.3438C59.3843 31.6949 59.3591 32.0463 59.3428 32.3975C59.3428 32.7484 59.3184 33.1116 59.3184 33.4951C59.3184 33.9402 59.3182 34.398 59.3672 34.8594C59.4162 35.3206 59.4333 35.7452 59.4619 36.1289C59.5892 37.6813 60.2477 39.1428 61.3271 40.2656C61.9023 40.8428 62.5931 41.2923 63.3535 41.585C64.1139 41.8776 64.9276 42.0075 65.7412 41.9648C67.0542 42.0405 68.3586 41.7061 69.4736 41.0088C70.4391 40.282 71.2108 39.3285 71.7197 38.2324H72.6836C72.1551 39.7867 71.1698 41.1456 69.8574 42.1318C68.5077 43.098 66.8779 43.5947 65.2188 43.5449C64.0097 43.5882 62.8068 43.353 61.7031 42.8574C60.5994 42.3619 59.6245 41.6189 58.8535 40.6865C57.2547 38.7792 56.4035 36.3553 56.46 33.8672C56.3955 31.4461 57.1737 29.0773 58.6611 27.166C59.383 26.257 60.3102 25.5317 61.3662 25.0498C62.4222 24.568 63.5776 24.343 64.7373 24.3936ZM79.8457 30.96C81.3975 30.9488 82.891 31.5503 84.002 32.6338H83.9814C84.5901 33.2279 85.0652 33.9452 85.375 34.7373C85.6848 35.5294 85.8224 36.3782 85.7783 37.2275C85.8217 38.0805 85.6847 38.9335 85.375 39.7295C85.0653 40.5254 84.5898 41.2463 83.9814 41.8457C82.8822 42.9375 81.395 43.549 79.8457 43.5449C78.2792 43.5565 76.7724 42.9449 75.6562 41.8457C75.0486 41.2459 74.5746 40.5245 74.2656 39.7285C73.9567 38.9326 73.8194 38.0802 73.8633 37.2275C73.8174 36.4166 73.9391 35.605 74.2197 34.8428C74.5004 34.0805 74.9343 33.3835 75.4951 32.7959C76.0558 32.2085 76.7313 31.7426 77.4795 31.4268C78.2278 31.1109 79.0335 30.952 79.8457 30.96ZM38.9023 24.5C39.5848 24.477 40.266 24.5741 40.915 24.7861C41.3407 24.9611 41.794 25.0595 42.2539 25.0762C42.4308 25.0805 42.6082 25.0633 42.7812 25.0264C42.9259 24.9788 43.0466 24.8767 43.1162 24.7412H43.9326V29.0938H43.1162C42.9894 28.1949 42.5562 27.3672 41.8906 26.75C41.5197 26.307 41.0548 25.9521 40.5293 25.7119C40.0037 25.4717 39.4304 25.3518 38.8525 25.3613C38.0134 25.3153 37.184 25.5607 36.5049 26.0557C36.2199 26.2884 35.9934 26.5848 35.8438 26.9209C35.6941 27.257 35.6258 27.6237 35.6436 27.9912C35.6388 28.7111 35.8941 29.4083 36.3623 29.9551C36.8776 30.5558 37.5363 31.017 38.2773 31.2949C39.456 32.5743 40.7316 33.858 42.1035 35.1455C43.4754 36.433 44.7834 37.6373 46.0273 38.7588C46.3678 38.213 46.6188 37.6163 46.7705 36.9912C46.9201 36.3211 46.9931 35.6358 46.9873 34.9492C47.0039 34.5807 46.9412 34.2129 46.8047 33.8701C46.6681 33.5273 46.4599 33.2172 46.1943 32.9609C45.6096 32.4452 44.846 32.1795 44.0674 32.2217V31.2949H50.6338V32.1562H49.9189C49.7597 32.1562 49.4448 32.4255 48.9834 32.9727C48.6395 33.2945 48.3979 33.7107 48.2891 34.1689V34.2188C48.2574 35.1376 48.0968 36.0478 47.8115 36.9219C47.5372 37.7679 47.1305 38.5649 46.6074 39.2842C47.1972 39.7786 47.7943 40.2732 48.3955 40.7676C49.0161 41.2779 49.6777 41.7722 50.3799 42.2539H51.4785V43.21H49.4697C48.652 43.2238 47.8392 43.0781 47.0771 42.7812C46.2631 42.4169 45.5181 41.9139 44.876 41.2949C44.1517 42.0243 43.2781 42.588 42.3154 42.9482C41.2017 43.3356 40.0276 43.5216 38.8486 43.4961C37.3503 43.5039 35.8998 42.9684 34.7656 41.9893C34.1787 41.5156 33.7085 40.9124 33.3926 40.2275C33.0768 39.5427 32.9235 38.7939 32.9443 38.04C32.9323 36.9188 33.2136 35.8138 33.7607 34.835C34.2916 33.8946 35.0362 33.0919 35.9336 32.4912C35.5042 31.9461 35.1421 31.3507 34.8555 30.7188C34.5728 30.0545 34.4337 29.338 34.4473 28.6162C34.4131 28.0537 34.5022 27.4904 34.708 26.9658C34.9139 26.4411 35.2319 25.9673 35.6396 25.5781C36.5515 24.8189 37.7176 24.4334 38.9023 24.5ZM125.894 30.9639C127.065 30.9239 128.22 31.2513 129.196 31.8994C129.632 32.1983 129.983 32.6031 130.218 33.0762C130.452 33.5493 130.562 34.0751 130.536 34.6025V41.0127C130.536 41.2046 130.711 41.458 131.062 41.7764C131.414 42.0948 131.667 42.2587 131.826 42.2588H133.264C133.582 42.1928 133.869 42.0228 134.08 41.7764C134.431 41.4579 134.607 41.2046 134.607 41.0127V33.4463C134.607 33.2585 134.431 33.001 134.08 32.6826C133.867 32.4386 133.581 32.2708 133.264 32.2051H132.545V31.2461H136.326L136.804 33.7363C137.443 33.0558 138.126 32.4162 138.846 31.8213C139.6 31.2501 140.531 30.9613 141.476 31.0049C141.914 30.997 142.35 31.0771 142.757 31.2412C143.164 31.4054 143.533 31.6498 143.844 31.96C144.172 32.2838 144.429 32.6727 144.599 33.1016C144.768 33.5305 144.846 33.9904 144.828 34.4512L144.848 41.042C144.848 41.2339 145.024 41.4955 145.375 41.8301C145.726 42.1647 145.979 42.332 146.139 42.332H146.857V43.2422H140.589V42.332H141.283C141.446 42.332 141.692 42.1647 142.051 41.8301C142.41 41.4955 142.578 41.2339 142.578 41.042V34.5488C142.595 34.0259 142.434 33.513 142.124 33.0918C141.954 32.8858 141.737 32.7236 141.491 32.6191C141.245 32.5147 140.978 32.4707 140.712 32.4912C139.762 32.5222 138.848 32.8568 138.103 33.4463C137.223 34.0886 136.785 34.5992 136.787 34.9775V41.0088C136.787 41.2333 136.963 41.5027 137.314 41.8252C137.527 42.0694 137.814 42.2379 138.131 42.3037H138.833V43.2139H128.674L128.339 40.7275C127.836 41.3888 127.276 42.0046 126.665 42.5684C126.044 43.1524 125.219 43.4711 124.366 43.4551C123.964 43.458 123.566 43.3782 123.196 43.2217C122.826 43.0651 122.492 42.8344 122.214 42.5439C121.91 42.2363 121.672 41.8698 121.516 41.4668C121.359 41.0637 121.287 40.6323 121.304 40.2002C121.258 39.6928 121.357 39.1827 121.59 38.7295C121.823 38.2765 122.179 37.8991 122.618 37.6406C123.418 37.1776 124.281 36.8308 125.179 36.6113L128.29 35.9863L128.339 34.5527C128.375 33.8305 128.136 33.1212 127.67 32.5684C127.359 32.2916 126.994 32.083 126.599 31.9551C126.203 31.8271 125.784 31.7825 125.37 31.8252C124.969 31.7771 124.562 31.8412 124.194 32.0098C123.827 32.1784 123.513 32.4455 123.288 32.7812C123.109 33.1761 123.027 33.608 123.048 34.041C123.069 34.474 123.193 34.8961 123.41 35.2715H122.549L120.916 32.8789C121.57 32.2358 122.349 31.7337 123.205 31.4043C124.061 31.0748 124.977 30.9249 125.894 30.9639ZM94.5977 31.0146C95.2509 31.0537 95.8826 31.2743 96.4199 31.6543C96.7253 31.8749 96.9811 32.157 97.1709 32.4824C97.3608 32.808 97.4809 33.1703 97.5225 33.5449C98.2534 32.8426 98.9269 32.2502 99.5312 31.7725C100.223 31.2667 101.068 31.013 101.924 31.0537C102.791 31.0324 103.632 31.3502 104.268 31.9395C104.597 32.2664 104.853 32.6602 105.019 33.0938C105.184 33.5274 105.255 33.9917 105.228 34.4551V40.9883C105.228 41.1802 105.395 41.4416 105.729 41.7764C106.064 42.1111 106.309 42.2792 106.469 42.2793H107.188V43.1895H101.062V42.2793L101.732 42.3193C101.924 42.3192 102.186 42.1521 102.521 41.8174C102.855 41.4826 103.022 41.2212 103.022 41.0293V34.3057C103.002 33.8627 102.844 33.435 102.569 33.083C102.384 32.8867 102.157 32.7352 101.904 32.6396C101.652 32.5441 101.38 32.5076 101.111 32.5322C100.264 32.5604 99.4488 32.8625 98.7881 33.3936C98.0068 33.9707 97.6162 34.4499 97.6162 34.8311V41.0498C97.6162 41.2417 97.7834 41.5031 98.1182 41.8379C98.4528 42.1725 98.7021 42.3397 98.8613 42.3398H99.5801V43.251H93.4551V42.3398H94.125C94.3169 42.3398 94.5783 42.1727 94.9131 41.8379C95.2479 41.5031 95.415 41.2417 95.415 41.0498V34.5166C95.4413 33.9871 95.2713 33.4665 94.9375 33.0547C94.7538 32.8621 94.5297 32.7125 94.2812 32.6172C94.0327 32.5219 93.7655 32.4826 93.5 32.5029C92.6307 32.5315 91.7964 32.8528 91.1318 33.4141C90.3506 34.0184 89.96 34.5288 89.96 34.9453V41.0703C89.96 41.2622 90.1272 41.5237 90.4619 41.8584C90.7965 42.193 91.062 42.3601 91.2539 42.3604H91.9238V43.2715H85.7988V42.3604H86.5176C86.6768 42.3604 86.9261 42.1932 87.2568 41.8584C87.5875 41.5236 87.7587 41.2622 87.7588 41.0703V33.4463C87.7586 33.2585 87.5915 33.001 87.2568 32.6826C86.9221 32.3642 86.6768 32.2051 86.5176 32.2051H85.7988V31.2949H89.4736L89.9521 33.5938C90.6544 32.8588 91.2928 32.2435 91.8672 31.748C92.4798 31.2797 93.2229 31.02 93.9883 31.002L94.5977 31.0146ZM79.8662 32.0215C79.4207 31.99 78.9731 32.0501 78.5518 32.1982C78.1304 32.3464 77.7437 32.5794 77.416 32.8828C76.8298 33.5136 76.4678 34.3204 76.3867 35.1777V35.1162C76.3232 35.4478 76.2839 35.7839 76.2686 36.1211C76.2686 36.4723 76.2441 36.8238 76.2441 37.1709C76.2441 37.5178 76.2441 37.8646 76.2686 38.1992C76.2828 38.5136 76.3221 38.8268 76.3867 39.1348C76.4814 39.9885 76.8415 40.7912 77.416 41.4297C77.7366 41.7463 78.1207 41.9915 78.543 42.1484C78.9653 42.3054 79.4167 42.3703 79.8662 42.3398C80.3274 42.3803 80.7924 42.3227 81.2295 42.1699C81.6665 42.0172 82.0658 41.7729 82.4014 41.4541C82.9606 40.8244 83.3119 40.0371 83.4062 39.2002V39.2939C83.4389 38.9428 83.4593 38.5914 83.4756 38.2402C83.4919 37.8891 83.5 37.5376 83.5 37.1865C83.5 36.8355 83.5001 36.4968 83.4756 36.1621C83.4511 35.8273 83.4389 35.5124 83.4062 35.2266C83.3318 34.3531 82.9696 33.5288 82.377 32.8828C82.0393 32.5757 81.6426 32.3405 81.2109 32.1924C80.7792 32.0442 80.3213 31.9863 79.8662 32.0215ZM114.812 32.4502C114.37 32.4316 113.929 32.5049 113.518 32.665C113.106 32.8253 112.731 33.0688 112.418 33.3809C111.794 34.0369 111.336 34.8321 111.079 35.7002V38.8125C111.074 39.2586 111.16 39.701 111.333 40.1123C111.506 40.5238 111.761 40.896 112.083 41.2051C112.401 41.5312 112.783 41.7882 113.204 41.9609C113.625 42.1337 114.078 42.2181 114.533 42.209H114.582C115.006 42.2414 115.433 42.1787 115.83 42.0254C116.227 41.8721 116.585 41.6324 116.877 41.3232C117.412 40.6587 117.738 39.8501 117.812 39V39.0771L117.906 38.1221C117.939 37.8046 117.955 37.4851 117.955 37.166C117.956 36.8864 117.939 36.6067 117.906 36.3291C117.874 36.0556 117.841 35.7943 117.812 35.5371C117.734 34.6996 117.399 33.9064 116.853 33.2666C116.591 32.9922 116.273 32.7776 115.921 32.6367C115.569 32.4959 115.19 32.4321 114.812 32.4502ZM36.3662 32.9854C35.91 33.4633 35.5382 34.0154 35.2676 34.6182C34.9828 35.3484 34.8522 36.1299 34.8838 36.9131C34.9022 37.5977 35.0677 38.2708 35.3691 38.8857C35.6707 39.5008 36.1018 40.0445 36.6318 40.4785C37.6184 41.4621 38.9461 42.0281 40.3389 42.0586V42.0703C41.0939 42.0805 41.8458 41.9672 42.5645 41.7354C43.2019 41.5215 43.8059 41.2177 44.3574 40.833L44.2139 40.7393C42.8529 39.5252 41.5137 38.2807 40.1963 37.0068C38.8789 35.7329 37.602 34.3926 36.3662 32.9854ZM125.48 37.5176C124.867 37.6174 124.307 37.9295 123.9 38.3994C123.604 38.8282 123.453 39.3405 123.468 39.8613V39.9062C123.464 40.1499 123.509 40.3918 123.6 40.6182C123.69 40.8445 123.824 41.0514 123.994 41.2256C124.159 41.4028 124.36 41.5434 124.583 41.6377C124.806 41.732 125.047 41.7776 125.289 41.7725H125.358C125.999 41.7466 126.61 41.493 127.081 41.0576C127.567 40.6692 127.982 40.2 128.307 39.6699L128.339 36.7988L125.48 37.5176ZM98.1143 7.46387H97.3506C97.1914 7.46398 96.9835 7.624 96.7305 7.94238C96.5164 8.16515 96.3816 8.45185 96.3467 8.75879L99.2041 14.6426L101.838 8.80371C101.839 8.64328 101.809 8.48401 101.747 8.33594C101.685 8.18789 101.593 8.05428 101.479 7.94238C101.207 7.62414 100.991 7.46408 100.83 7.46387H100.042V6.55371H104.876V7.46387H104.35C104.19 7.46387 103.941 7.63196 103.606 7.9668C103.344 8.20562 103.125 8.48889 102.961 8.80371L98.8779 17.4648L95.3662 24.2139L94.3252 23.6836L97.959 17.126L93.7412 8.83594C93.5417 8.52361 93.2902 8.24755 92.998 8.01953C92.5901 7.66869 92.3206 7.49349 92.1816 7.49316H91.6543V6.55371H98.1143V7.46387ZM10.9111 13.8301H11.0537L16.8438 0H21.6787V0.910156H20.7676C20.6083 0.910352 20.3306 1.09479 19.9307 1.45801C19.5306 1.82135 19.3301 2.10712 19.3301 2.29492V16.1777C19.3301 16.3697 19.5305 16.6481 19.9307 17.0156C20.3305 17.3828 20.6083 17.5662 20.7676 17.5664H21.6787V18.4727H14.5449V17.5586H15.4551C15.6143 17.5586 15.8886 17.3743 16.2725 17.0068C16.6561 16.6395 16.8477 16.3618 16.8477 16.1699V2.72754L10.1426 18.8037L3.44629 2.4502V16.1738C3.44629 16.3657 3.63811 16.6434 4.01758 17.0107C4.39733 17.3782 4.67571 17.5625 4.83496 17.5625H5.74121V18.4688H0V17.5586H0.910156C1.10207 17.5586 1.38863 17.3743 1.77246 17.0068C2.15611 16.6395 2.34375 16.3618 2.34375 16.1699V2.29492C2.34375 2.10713 2.15202 1.82537 1.77246 1.45801C1.39271 1.09051 1.10207 0.910156 0.910156 0.910156H0V0H5.35742L10.9111 13.8301ZM87.3301 6.29688C87.9094 6.26458 88.489 6.35703 89.0293 6.56836C89.5696 6.7797 90.0582 7.10475 90.4619 7.52148C91.2115 8.32329 91.6471 9.36896 91.6875 10.4658L91.7363 11.3271L83.79 11.9639C83.8061 13.1108 84.2092 14.219 84.9336 15.1084C85.2976 15.5971 85.7753 15.9894 86.3252 16.252C86.8752 16.5145 87.4809 16.6396 88.0898 16.6152C88.9122 16.6615 89.7315 16.4808 90.458 16.0928C91.0498 15.707 91.5357 15.1784 91.8711 14.5566H92.5898C92.2857 15.7367 91.6543 16.8076 90.7686 17.6445C89.8046 18.4373 88.5758 18.8352 87.3301 18.7588V18.7832C86.5752 18.7975 85.8269 18.6394 85.1426 18.3203C84.4582 18.0011 83.8561 17.5291 83.3818 16.9414C82.3473 15.7191 81.7942 14.1616 81.8262 12.5605C81.7767 10.919 82.3399 9.31733 83.4062 8.06836C83.8795 7.49078 84.4797 7.03003 85.1602 6.72266C85.8408 6.41527 86.5837 6.26998 87.3301 6.29688ZM27.7012 6.21875C28.5197 6.19998 29.3337 6.34713 30.0938 6.65137C30.7837 6.94537 31.4158 7.36083 31.96 7.87695L30.2168 10.6162L29.498 10.6611C29.6611 9.84599 29.6122 9.00257 29.3555 8.21191C29.2029 7.84392 28.9311 7.53724 28.584 7.3418C28.2369 7.14642 27.8341 7.07338 27.4404 7.13379C26.9273 7.10118 26.4139 7.20256 25.9521 7.42871C25.4903 7.65496 25.0954 7.99833 24.8066 8.42383C24.1903 9.44781 23.8898 10.6313 23.9443 11.8252C23.9098 13.0622 24.3264 14.2699 25.1162 15.2227C25.5132 15.68 26.009 16.0413 26.5654 16.2803C27.1219 16.5193 27.7251 16.6295 28.3301 16.6025C29.1448 16.6511 29.9569 16.4702 30.6738 16.0801C31.2687 15.6728 31.7599 15.1317 32.1074 14.5H32.875C32.5339 15.6861 31.881 16.7592 30.9844 17.6074C30.0009 18.4231 28.7442 18.8346 27.4688 18.7588C26.7103 18.7863 25.9555 18.6356 25.2656 18.3193C24.5759 18.0031 23.9693 17.5299 23.4951 16.9375C22.5004 15.7085 21.9757 14.1656 22.0137 12.585C21.9693 11.7389 22.0941 10.8919 22.3809 10.0947C22.6676 9.29774 23.1106 8.56617 23.6836 7.94238C24.1962 7.39117 24.818 6.95299 25.5098 6.65625C26.2017 6.35953 26.9484 6.21016 27.7012 6.21875ZM75.1406 6.33887C75.8875 6.24697 76.6456 6.3419 77.3467 6.61523C77.7565 6.81901 78.2074 6.92666 78.665 6.92969C78.8048 6.93424 78.9448 6.90847 79.0742 6.85547C79.1921 6.80292 79.2864 6.70874 79.3389 6.59082H79.96V10.2656H79.2412C79.1251 9.53976 78.7815 8.86938 78.2607 8.35059C77.9411 7.9597 77.5355 7.64801 77.0752 7.44043C76.6148 7.23289 76.1121 7.13499 75.6074 7.1543C75.0539 7.10901 74.5014 7.26225 74.0508 7.58691C73.8895 7.71988 73.7608 7.88801 73.6738 8.07812C73.5868 8.26842 73.5438 8.47636 73.5488 8.68555C73.5341 8.90545 73.575 9.12588 73.667 9.32617C73.759 9.5264 73.8998 9.70088 74.0762 9.83301C74.5285 10.1471 75.0079 10.4204 75.5088 10.6494C75.958 10.8372 76.3791 11.0126 76.7793 11.1719L78.0938 11.6992C78.78 11.9876 79.4115 12.3923 79.96 12.8955C80.2626 13.1766 80.501 13.5204 80.6582 13.9023C80.8153 14.2843 80.8873 14.6958 80.8701 15.1084L80.8496 15.1201C80.878 15.6183 80.7966 16.1171 80.6104 16.5801C80.4241 17.0429 80.1379 17.4592 79.7725 17.7988C79.0098 18.4558 78.0254 18.7991 77.0195 18.7588C76.3628 18.7786 75.7094 18.6559 75.1045 18.3994C74.6274 18.1669 74.104 18.044 73.5732 18.04C73.391 18.0224 73.2077 18.0637 73.0508 18.1582L72.667 18.4688H72.1113V14.2588H72.8301C72.9634 15.0793 73.3573 15.8354 73.9531 16.415C74.3317 16.8585 74.8069 17.2093 75.3418 17.4414C75.8767 17.6735 76.4575 17.7804 77.04 17.7539C77.6386 17.7851 78.2349 17.6524 78.7637 17.3701C78.9673 17.2403 79.1321 17.0582 79.2412 16.8428C79.3504 16.6273 79.3997 16.3866 79.3838 16.1455C79.4056 15.8582 79.3481 15.5705 79.2178 15.3135C79.0875 15.0565 78.8892 14.8397 78.6445 14.6875C78.1609 14.3901 77.6579 14.1253 77.1387 13.8955C76.6895 13.7077 76.2847 13.5323 75.9131 13.373C75.5415 13.2138 75.1213 13.0376 74.6436 12.8457C73.9674 12.5333 73.3519 12.1037 72.8262 11.5762C72.581 11.3095 72.3909 10.9969 72.2676 10.6562C72.1442 10.3156 72.0898 9.95367 72.1074 9.5918C72.0776 9.138 72.1486 8.68322 72.3145 8.25977C72.4803 7.83634 72.7373 7.45438 73.0674 7.1416C73.6813 6.70645 74.3938 6.4308 75.1406 6.33887ZM40.1963 0.910156H39.2861C39.0942 0.910156 38.8077 1.09459 38.4238 1.45801C38.0402 1.82129 37.8525 2.10714 37.8525 2.29492V9.85742L44.4551 2.48633C44.5814 2.32703 44.4548 2.025 44.1201 1.58008C43.7854 1.13516 43.5118 0.910156 43.3525 0.910156H42.4668V0H49.1631V0.910156H48.2529C47.8031 1.0648 47.3901 1.31177 47.04 1.63379C46.3993 2.12763 46.0194 2.44986 45.8887 2.56836L41.3965 7.39941L47.8564 15.9736C48.1699 16.3389 48.5314 16.6609 48.9307 16.9297C49.2513 17.2245 49.6377 17.439 50.0576 17.5547H51.3965C51.7136 17.4889 52.0011 17.3204 52.2139 17.0762C52.5648 16.7537 52.7402 16.4843 52.7402 16.2598V8.70996C52.7402 8.5181 52.5648 8.26076 52.2139 7.94238C52.0011 7.69819 51.7136 7.52963 51.3965 7.46387H50.6738V6.55371H54.9326V16.2676C54.9326 16.4922 55.1169 16.7624 55.4844 17.085C55.6957 17.3165 55.9694 17.4822 56.2725 17.5625H57.7588C57.918 17.5625 58.1673 17.4034 58.5225 17.085C58.8777 16.7665 59.0488 16.4922 59.0488 16.2676V8.70996C59.0488 8.51808 58.8735 8.26079 58.5225 7.94238C58.1713 7.62391 57.918 7.46389 57.7588 7.46387H56.9912V6.55371H60.7725L61.25 8.9834C61.8991 8.29792 62.5947 7.65789 63.332 7.06836C64.081 6.50532 65.0012 6.21724 65.9375 6.25195C66.3771 6.24398 66.8141 6.3244 67.2217 6.48926C67.6293 6.65415 68 6.89954 68.3105 7.21094C68.6373 7.53487 68.8928 7.92352 69.0615 8.35156C69.2302 8.77964 69.3079 9.23847 69.29 9.69824V16.2676C69.29 16.4921 69.4653 16.7624 69.8164 17.085C70.1673 17.4073 70.4208 17.5623 70.5801 17.5625H71.3477V18.4688H65.0801V17.5586H65.7412C66.0579 17.492 66.3453 17.3245 66.5586 17.0811C66.9098 16.7585 67.085 16.4883 67.085 16.2637V9.65723C67.0633 9.19157 66.8958 8.74245 66.6035 8.375C66.4243 8.17612 66.2015 8.02069 65.9531 7.9209C65.7048 7.82117 65.4368 7.77919 65.1699 7.79883C64.2234 7.82768 63.31 8.15542 62.5605 8.73438C61.6868 9.35498 61.25 9.87357 61.25 10.29V16.2676C61.25 16.4921 61.4252 16.7624 61.7764 17.085C61.9891 17.3291 62.2766 17.4967 62.5938 17.5625H63.2627V18.4688H46.1416L39.7188 9.23633L37.8525 11.2451V16.1738C37.8525 16.3657 38.0403 16.6434 38.4238 17.0107C38.8077 17.3782 39.0942 17.5625 39.2861 17.5625H40.1963V18.4688H32.9688V17.5586H33.8916C34.0835 17.5586 34.3691 17.3743 34.7529 17.0068C35.1368 16.6393 35.3252 16.3618 35.3252 16.1699V2.29492C35.3252 2.10709 35.1368 1.82551 34.7529 1.45801C34.3691 1.09053 34.0713 0.910156 33.8916 0.910156H32.9688V0H40.1963V0.910156ZM87.2812 7.20312C86.7594 7.15956 86.235 7.25349 85.7607 7.47559C85.2866 7.69767 84.8788 8.04006 84.5781 8.46875C84.0392 9.2541 83.7325 10.1753 83.6924 11.127L89.6738 10.6162C89.7761 9.81569 89.6849 9.00225 89.4082 8.24414C89.1468 7.53653 88.4381 7.18143 87.2812 7.17871V7.20312ZM53.5938 0.575195C54.0038 0.575195 54.4011 0.718848 54.7168 0.980469C54.8713 1.12285 54.9923 1.29754 55.0713 1.49219C55.1504 1.68704 55.1855 1.89746 55.1738 2.10742H55.125C55.1577 2.10742 55.1738 2.10743 55.1738 2.15234C55.1774 2.3503 55.1384 2.5469 55.0596 2.72852C54.9807 2.91008 54.8638 3.07253 54.7168 3.20508C54.4446 3.4798 54.0743 3.6362 53.6875 3.63867H53.5449C53.1438 3.64228 52.7572 3.48586 52.4707 3.20508C52.3237 3.07253 52.2068 2.91008 52.1279 2.72852C52.0491 2.5469 52.0101 2.3503 52.0137 2.15234V1.9502C52.0223 1.7933 52.0569 1.63845 52.1162 1.49219C52.1952 1.29754 52.3162 1.12285 52.4707 0.980469C52.7864 0.718848 53.1837 0.575196 53.5938 0.575195Z" fill="#051C2C"/>
</svg>
