<svg width="117" height="24" viewBox="0 0 117 24" fill="none" xmlns="http://www.w3.org/2000/svg">
<path d="M25.3291 0C30.7939 3.16085e-05 35.293 6.95504 35.293 15.2363C35.293 20.2886 33.1181 23.4531 29.2109 23.4531C25.8073 23.4531 23.9289 21.541 20.5576 15.8994L18.8271 12.9883C18.4169 12.2967 18.0261 11.6514 17.6553 11.0527C16.6016 12.9159 15.0721 15.6168 15.0586 15.6406C11.368 22.0918 9.29172 23.453 6.40527 23.4531C2.39464 23.4531 0 20.3312 0 15.3818C1.62533e-05 7.47256 4.39969 0 10.1416 0C12.9578 0.000102599 15.3111 1.36543 18.125 4.94824C20.1728 2.17947 22.4352 0 25.3291 0ZM77.7822 6.04004C79.3637 6.04011 80.725 6.41477 81.8662 7.16309C83.0071 7.91165 83.8861 8.95959 84.502 10.3076C85.1175 11.6559 85.4247 13.2385 85.4248 15.0537V16.04H73.2119C73.4349 17.399 73.9837 18.469 74.8594 19.249C75.7351 20.0293 76.8422 20.42 78.1797 20.4199C79.2518 20.4199 80.1752 20.2598 80.9502 19.9414C81.7249 19.623 82.4524 19.1405 83.1318 18.4932L85.043 20.834C83.1426 22.575 80.8124 23.4454 78.0527 23.4453C76.3859 23.4453 74.9204 23.0767 73.6572 22.3389C72.3938 21.6011 71.409 20.5792 70.7031 19.2734C69.997 17.9676 69.6444 16.4701 69.6445 14.7822C69.6446 13.0733 69.9897 11.5605 70.6797 10.2441C71.3696 8.92813 72.3277 7.89861 73.5537 7.15527C74.7799 6.41237 76.1899 6.04024 77.7822 6.04004ZM107.672 6.04004C108.807 6.0401 109.826 6.2607 110.729 6.70117C111.619 7.13175 112.39 7.77443 112.974 8.57227V6.43848H116.382V23.0469H112.974V20.7227C112.369 21.593 111.599 22.2641 110.665 22.7363C109.731 23.2085 108.669 23.445 107.48 23.4453C106.016 23.4453 104.718 23.0708 103.587 22.3223C102.456 21.5739 101.567 20.5443 100.92 19.2334C100.272 17.9223 99.9482 16.4223 99.9482 14.7344C99.9483 13.0362 100.277 11.5342 100.936 10.2285C101.594 8.9229 102.504 7.89851 103.667 7.15527C104.829 6.41242 106.165 6.04024 107.672 6.04004ZM93.2598 6.43848H98.292V9.38477H93.2598V16.8525C93.2598 18.0945 93.4728 18.9809 93.8975 19.5117C94.3219 20.0427 95.0491 20.3088 96.0791 20.3086C96.5352 20.3086 96.9226 20.2901 97.2412 20.2529C97.5596 20.2159 97.9099 20.1654 98.292 20.1016V23.0156C97.8561 23.1417 97.412 23.237 96.9629 23.3018C96.449 23.3774 95.9296 23.4145 95.4102 23.4131C91.6626 23.4131 89.7889 21.3643 89.7891 17.2666V9.38477H86.4766V6.43848H89.7891V1.56543H93.2598V6.43848ZM54.6279 14.3213L62.1289 0.753906H66.4443V23.0469H62.8447V5.96094L56.2686 17.792H52.8926L46.3164 5.96094V23.0469H42.7168V0.753906H47.1279L54.6279 14.3213ZM108.372 9.19336C106.886 9.19337 105.702 9.69259 104.821 10.6904C103.94 11.6882 103.499 13.0361 103.499 14.7344C103.499 16.4437 103.924 17.7981 104.773 18.7959C105.623 19.7935 106.774 20.292 108.229 20.292C109.301 20.292 110.256 20.0159 111.095 19.4639C111.933 18.9121 112.538 18.1688 112.91 17.2344V12.251C112.538 11.3061 111.952 10.5605 111.15 10.0137C110.349 9.46707 109.423 9.19336 108.372 9.19336ZM10.0928 3.83301C6.68003 3.83301 3.81748 9.70446 3.81738 15.4463C3.81738 18.1303 4.83629 19.6357 6.55078 19.6357C8.21662 19.6356 9.252 18.5839 12.2441 13.8936C12.2619 13.8653 13.6191 11.7099 15.8506 8.28711C13.4851 4.90072 11.9408 3.83301 10.0928 3.83301ZM25.0869 3.02441C23.2573 3.02441 21.7185 4.45939 19.8535 7.33789C20.3698 8.10364 20.9079 8.94194 21.4678 9.85254L23.5371 13.3037C26.7731 18.5103 27.5877 19.6357 29.292 19.6357C31.0701 19.6356 31.9287 18.1153 31.9287 15.4951C31.9287 8.62127 28.8877 3.02487 25.0869 3.02441ZM77.7178 9.06543C76.5289 9.0655 75.5337 9.45861 74.7324 10.2441C73.9308 11.0297 73.4241 12.0862 73.2119 13.4131H81.9697C81.8635 12.0543 81.4333 10.9904 80.6797 10.2207C79.9258 9.45116 78.9385 9.06557 77.7178 9.06543Z" fill="black"/>
</svg>
