<svg width="342" height="48" viewBox="0 0 342 48" fill="none" xmlns="http://www.w3.org/2000/svg">
<path d="M161.219 13.9453C161.411 13.9453 162.065 14.1539 162.065 14.3457L162.077 15.5088L152.68 31.7842C151.98 32.7662 150.908 33.4832 149.666 33.4775L137.984 33.4658V33.4775C136.664 33.4775 135.693 34.0194 134.959 35.0127L128.159 46.7734L127.459 47.4111C127.307 47.5522 126.731 47.191 126.606 46.9766L121.81 38.5967C121.144 37.4286 122.024 35.9895 122.583 35.0244L133.306 16.4336C134.209 14.8705 135.321 13.9336 137.268 13.9336L161.219 13.9453ZM98.6934 0.0566406L71.3896 47.3555L66.0625 47.3721L93.4053 0.0117188L98.6934 0.0566406ZM39.2324 14.3682C43.0078 14.2497 46.2757 15.9598 48.0986 19.3457C50.1642 23.1833 49.673 27.9304 46.5859 30.9893C42.2404 35.2949 34.915 34.7193 31.3145 29.7588C28.7523 26.2259 28.9955 21.4232 31.5859 17.958L39.6729 7.10547H44.7461L39.2324 14.3682ZM4.44043 15.0791C7.40315 13.217 10.8344 12.935 13.8535 14.498L16.0889 15.6611L16.252 13.9453L20.3779 13.9619L20.3877 33.4268L16.3145 33.5283L16.0713 31.7002C15.3999 31.9315 14.8583 32.2418 14.1475 32.6875C11.0717 34.6176 7.03621 33.9626 4.15234 31.9873C1.16142 29.9387 -0.30567 26.3442 0.0498047 22.5801C0.354557 19.3971 2.08142 16.5577 4.44043 15.0791ZM311.111 13.9336C311.535 13.9336 312.37 14.8198 312.1 15.2939L302.872 31.3047C302.127 32.597 301.077 33.4441 299.475 33.4893L275.219 33.5L274.299 33.0205C274.062 32.8964 274.158 32.1461 274.299 31.9033L283.836 15.3955C284.338 14.5264 285.783 13.9619 286.776 13.9619L295.23 13.9512C295.462 13.9512 296.1 14.1655 296.105 14.3574L296.128 15.5254L288.159 29.3066C287.736 29.8541 287.504 30.9212 287.764 31.4912C288.96 31.9483 290.524 31.2544 291.207 30.0693L299.356 15.9824C300.039 14.8087 301.156 13.9734 302.584 13.9678L302.578 13.9561L311.111 13.9336ZM340.972 13.9453C341.237 13.9904 341.982 14.1596 341.982 14.3965L341.999 15.4238L332.507 31.8691C331.79 32.8116 330.638 33.4893 329.419 33.4893H321.196C320.931 33.4947 320.147 33.3476 320.136 33.0938L320.085 31.9316L328.517 17.377H328.522C328.601 16.824 328.64 16.4342 328.606 16.1689C328.516 15.4691 326.011 15.6439 324.809 17.7207L316.97 31.3047C316.236 32.5745 315.186 33.4834 313.572 33.4834L305.152 33.4941C304.927 33.4941 304.277 33.2913 304.271 33.0938L304.243 31.9316L313.561 15.791C314.232 14.6623 315.356 14.0243 316.716 13.9453H340.972ZM131.031 13.9453C131.28 13.9454 131.883 14.1881 132.047 14.3574C132.21 14.5268 132.211 15.2042 132.075 15.4355L129.569 19.7295C129.011 20.6831 127.566 21.0951 126.545 21.1572L118.17 21.1406L117.317 20.6494C117.131 20.5421 117.227 19.8603 117.328 19.668L118.632 17.2979C118.773 17.0383 118.774 16.389 118.649 16.1406C118.26 15.3505 116.003 15.7513 114.772 17.9297L112.809 21.4004C112.673 21.6374 112.667 22.4784 112.876 22.5518L113.784 22.873L126.517 22.8623C126.855 23.0658 127.171 23.9736 126.962 24.3291L122.605 31.835H122.622C121.99 32.9242 120.641 33.4893 119.456 33.4893H95.4707C95.1377 33.4891 94.562 33.3022 94.3984 33.1104C94.2351 32.9178 94.2462 32.1508 94.3984 31.8857L96.2891 28.5508C97.0227 27.2584 98.1635 26.2712 99.7324 26.2881L108.807 26.3945C110.037 28.0707 107.164 29.4594 107.763 31.3613C109.072 32.0724 110.63 31.1922 111.347 29.9395L113.632 25.96C113.75 25.7508 113.779 24.961 113.587 24.8877L112.701 24.5605L99.7715 24.5498C99.5232 24.2338 99.3204 23.3133 99.501 23.0029L103.88 15.4863C104.393 14.6059 105.715 13.9453 106.753 13.9453H131.031ZM191.135 13.9561C191.332 13.9504 191.964 14.1539 191.976 14.3457L192.038 15.4863L188.06 22.3877C187.557 23.347 186.44 24.5488 185.227 24.5547L173.347 24.5781C171.919 24.5781 170.587 25.1759 169.854 26.4512L167.754 30.1084C167.618 30.351 167.573 30.8983 167.584 31.1016C167.601 31.3612 168.352 31.7342 168.646 31.6777V31.6719C172.393 30.9438 171.665 26.2766 175.644 26.2822L184.013 26.293C184.25 26.293 184.78 26.5419 184.882 26.7451C184.983 26.9485 184.972 27.6304 184.837 27.8789L183.048 31.1016C182.292 32.4673 181.23 33.4893 179.543 33.4893H155.299C155.062 33.4949 154.282 33.2744 154.282 33.043L154.271 32.0156L163.662 15.751C164.351 14.6957 165.525 13.9561 166.879 13.9561H191.135ZM221.052 13.9512C221.3 13.9512 222.062 14.1544 222.073 14.3857L222.141 15.4072L217.768 23.0088C217.282 23.6578 216.288 24.5605 215.431 24.5605L203.274 24.5723C201.57 24.5723 200.436 25.4753 199.629 26.8975L197.75 30.2158C197.62 30.4416 197.626 31.1472 197.75 31.3447V31.3389C198.258 32.1003 200.684 31.6429 201.863 29.1094C202.676 27.3542 204.059 26.1637 206.091 26.2822H214.139L214.996 26.7783C215.182 26.8855 215.12 27.6027 214.996 27.8115L212.598 31.9033C211.994 32.9359 210.662 33.4893 209.477 33.4893H185.497C185.209 33.4891 184.42 33.3476 184.414 33.0938L184.38 31.9316L193.878 15.5137C194.623 14.6334 195.594 13.9512 196.79 13.9512H221.052ZM254.416 8.41406C254.958 9.34519 254.89 10.6096 254.32 11.5859L242.672 31.7393C241.983 32.93 240.708 33.4893 239.376 33.4893H215.391C215.153 33.489 214.55 33.2351 214.375 33.0771C214.2 32.9191 214.212 32.1627 214.364 31.8975V31.9033L223.828 15.5195C224.421 14.4926 225.848 13.9513 226.938 13.9512L239.252 13.9287C239.963 13.9287 241.165 12.9516 241.526 12.3252L248.141 0.869141C248.344 0.513617 249.055 0.0959721 249.518 0L254.416 8.41406ZM281.155 13.9395C281.353 13.9395 281.878 14.1481 281.979 14.3174C282.115 14.5374 282.132 15.2825 281.979 15.5479L279.604 19.6172C279.079 20.52 277.69 21.152 276.646 21.1465L267.543 21.0957L267.537 21.1064C266.359 19.3064 269.743 16.9143 268.531 16.0732C267.431 15.3114 265.782 16.2193 265.139 17.3311L256.865 31.5762C256.25 32.6369 255.059 33.4717 253.801 33.4717L245.291 33.4893C245.054 33.4893 244.405 33.2627 244.298 33.0596C244.162 32.7999 244.224 32.1061 244.388 31.8184L253.355 16.2422C254.117 14.9216 255.24 13.9395 256.899 13.9395H281.155ZM65.2549 13.9512V19.459L56.4229 27.8398C55.9038 28.3308 55.5993 28.8729 55.7178 29.5557H65.2832V33.4834H50.5537L50.5146 28.1221L59.4482 19.5605C59.9109 19.1147 60.1926 18.392 59.9443 17.9688H50.5479V13.9395L65.2549 13.9512ZM27.4375 7.11621L27.4434 33.4043L23.2393 33.4717V11.0957H20.4111L20.417 7.08301L27.4375 7.11621ZM20.3887 33.4385L20.3877 33.4268H20.3945L20.3887 33.4385ZM238.665 16.1289C238.641 15.6494 236.363 15.3682 234.975 17.6191L227.75 30.1201V31.2764C227.75 31.8633 230.166 32.0048 231.521 29.6797L238.716 17.1963L238.665 16.1289ZM148.69 16.1006C148.661 15.655 146.354 15.2951 144.887 17.8281L137.674 30.2949L137.736 31.248C137.776 31.8688 140.044 31.9421 141.433 29.8652L141.427 29.8711L148.752 17.1787L148.69 16.1006ZM39.4473 18.3643C36.2587 18.3643 33.6738 20.9491 33.6738 24.1377C33.6739 27.3262 36.2587 29.9111 39.4473 29.9111C42.6357 29.9111 45.2206 27.3262 45.2207 24.1377C45.2207 20.9491 42.6358 18.3643 39.4473 18.3643ZM10.0615 17.6816C6.77148 17.6816 4.10767 20.3448 4.10742 23.6348C4.10742 26.925 6.77133 29.5889 10.0615 29.5889C13.3516 29.5887 16.0146 26.9248 16.0146 23.6348C16.0144 20.3449 13.3514 17.6818 10.0615 17.6816ZM178.341 15.8867C177.088 15.5539 175.57 16.5017 174.904 17.6641L172.742 21.4512C172.618 21.6713 172.664 22.2576 172.805 22.4609C173.313 23.2115 175.451 22.7319 176.394 21.1348L178.606 17.3711C178.798 17.0438 178.713 15.9827 178.341 15.8867ZM208.676 16.1406C208.23 15.3562 206.113 15.6833 204.714 18.0928L203.343 20.458C203.044 20.9716 202.31 22.3652 203.213 22.6699V22.6758C204.641 23.1552 206 21.908 206.615 20.8584L208.687 17.3086C208.828 17.0716 208.811 16.3778 208.676 16.1406Z" fill="black"/>
</svg>
