<svg width="201" height="30" viewBox="0 0 201 30" fill="none" xmlns="http://www.w3.org/2000/svg">
<path d="M27.7158 16.625C27.8821 16.9865 28.0362 17.4224 28.1787 17.9326C28.3213 18.4219 28.4401 18.8374 28.5352 19.1777C28.6302 18.8374 28.749 18.4219 28.8916 17.9326C29.0341 17.4223 29.1768 16.9865 29.3193 16.625L33.5967 5.77539H37.0537L27.3945 29.0693H23.9736L26.8604 22.2402L19.5898 5.77539H23.1533L27.7158 16.625ZM7.80566 5.45605C10.063 5.45606 11.8806 5.99909 13.2588 7.08398C14.6369 8.16889 15.3613 9.64755 15.4326 11.5195H12.2256C12.1543 10.3922 11.7264 9.5302 10.9424 8.93457C10.182 8.31767 9.13628 8.0088 7.80566 8.00879C6.40377 8.00879 5.28672 8.37051 4.45508 9.09375C3.62352 9.79567 3.2081 10.8063 3.20801 12.125V16.9434C3.20801 18.2622 3.62354 19.2836 4.45508 20.0068C5.28673 20.7301 6.40374 21.0918 7.80566 21.0918C9.13628 21.0918 10.182 20.7829 10.9424 20.166C11.7262 19.5492 12.1543 18.688 12.2256 17.582H15.4326C15.3613 19.4539 14.6369 20.9327 13.2588 22.0176C11.8807 23.1024 10.0629 23.6445 7.80566 23.6445C6.23741 23.6445 4.85897 23.3785 3.6709 22.8467C2.50675 22.3149 1.60342 21.5495 0.961914 20.5498C0.320356 19.5287 0 18.3261 0 16.9434V12.1572C1.76258e-05 10.7534 0.320495 9.55149 0.961914 8.55176C1.60345 7.55197 2.50664 6.78572 3.6709 6.25391C4.85897 5.72209 6.23741 5.45605 7.80566 5.45605ZM44.7744 5.1377L44.7031 9.12598H44.8203C44.9614 8.11568 45.4322 7.28559 46.2354 6.63672C47.2333 5.84963 48.5291 5.45605 50.1211 5.45605C52.0931 5.45614 53.6733 6.04201 54.8613 7.21191C56.0492 8.38188 56.6436 9.97736 56.6436 11.998V17.1348C56.6436 19.1343 56.0493 20.7197 54.8613 21.8896C53.6733 23.0596 52.0931 23.6444 50.1211 23.6445C48.5053 23.6445 47.2096 23.2619 46.2354 22.4961C45.4295 21.845 44.9586 21.0042 44.8193 19.9746H44.7744V23.3252H41.5664V0.0322266H44.7744V5.1377ZM69.6387 5.45605C71.1831 5.45605 72.5255 5.7331 73.666 6.28613C74.8303 6.83922 75.722 7.61542 76.3398 8.61523C76.9814 9.61501 77.3017 10.7958 77.3018 12.1572V15.2529H65.1123V16.9434C65.1123 18.3261 65.504 19.3902 66.2881 20.1348C67.0722 20.858 68.1892 21.2197 69.6387 21.2197C70.8743 21.2197 71.8725 21.0284 72.6328 20.6455C73.3931 20.2414 73.8561 19.6454 74.0225 18.8584H77.2305C77.0166 20.3261 76.2085 21.496 74.8066 22.3682C73.4285 23.219 71.7059 23.6445 69.6387 23.6445C68.0942 23.6445 66.7395 23.3675 65.5752 22.8145C64.4349 22.2614 63.5438 21.485 62.9023 20.4854C62.2846 19.4643 61.9756 18.2835 61.9756 16.9434V12.1572C61.9756 10.7958 62.2846 9.61502 62.9023 8.61523C63.5438 7.61557 64.4348 6.83919 65.5752 6.28613C66.7395 5.73305 68.0942 5.45606 69.6387 5.45605ZM147.996 16.9434C147.996 18.2623 148.376 19.2945 149.137 20.0391C149.897 20.7622 150.931 21.124 152.237 21.124C153.568 21.124 154.614 20.7623 155.374 20.0391C156.158 19.2945 156.55 18.2622 156.55 16.9434V5.77539H159.758V16.9434C159.758 19.0068 159.069 20.6449 157.69 21.8574C156.312 23.0487 154.495 23.6445 152.237 23.6445C149.98 23.6445 148.174 23.0487 146.819 21.8574C145.465 20.6449 144.788 19.0067 144.788 16.9434V5.77539H147.996V16.9434ZM201.003 23.3252H197.795V19.9746H197.751C197.612 21.0043 197.14 21.845 196.334 22.4961C195.36 23.2618 194.065 23.6445 192.449 23.6445C190.501 23.6445 188.921 23.0595 187.709 21.8896C186.521 20.7197 185.927 19.1344 185.927 17.1348V11.998C185.927 9.97714 186.521 8.38191 187.709 7.21191C188.897 6.04192 190.477 5.45605 192.449 5.45605C194.065 5.4561 195.36 5.84976 196.334 6.63672C197.137 7.28561 197.609 8.11563 197.75 9.12598H197.866L197.795 5.1377V0.0322266H201.003V23.3252ZM91.8652 5.45605C93.9325 5.45605 95.5723 6.04192 96.7842 7.21191C98.0195 8.3606 98.6377 9.92419 98.6377 11.9023V12.9551H95.4297V12.1572C95.4297 10.7746 95.0494 9.7213 94.2891 8.99805C93.5525 8.25364 92.4951 7.88191 91.1172 7.88184C89.7629 7.88184 88.6933 8.25366 87.9092 8.99805C87.1488 9.74257 86.7686 10.7958 86.7686 12.1572V23.3252H83.5605V5.77539H86.6973V8.89355C86.9214 8.09975 87.2772 7.44267 87.7666 6.92383C88.6933 5.9455 90.0596 5.45606 91.8652 5.45605ZM139.634 2.61621H127.444V10.3701H138.707V12.9873H127.516V23.3252H124.308V0H139.634V2.61621ZM173.965 5.45605C175.937 5.45605 177.506 5.99908 178.67 7.08398C179.834 8.16888 180.416 9.64762 180.416 11.5195V23.3252H177.208V11.8379C177.208 10.5832 176.828 9.62617 176.068 8.9668C175.332 8.28607 174.321 7.94531 173.038 7.94531C171.708 7.94536 170.65 8.30705 169.866 9.03027C169.106 9.75352 168.726 10.7958 168.726 12.1572V23.3252H165.518V5.77539H168.726V9.12598H168.766C168.895 8.06509 169.345 7.22484 170.115 6.60547C171.042 5.83968 172.325 5.45608 173.965 5.45605ZM49.0518 7.94531C47.7449 7.94531 46.6992 8.31796 45.915 9.0625C45.1547 9.80701 44.7744 10.8384 44.7744 12.1572V16.9434C44.7744 18.2623 45.1547 19.2945 45.915 20.0391C46.6991 20.7835 47.745 21.1553 49.0518 21.1553C50.406 21.1552 51.4747 20.7935 52.2588 20.0703C53.0429 19.347 53.4355 18.3048 53.4355 16.9434V12.1572C53.4355 10.7958 53.0429 9.75352 52.2588 9.03027C51.4748 8.3072 50.4059 7.94538 49.0518 7.94531ZM193.519 7.94531C192.164 7.94531 191.095 8.30705 190.311 9.03027C189.526 9.75352 189.134 10.7958 189.134 12.1572V16.9434C189.134 18.3047 189.527 19.347 190.311 20.0703C191.095 20.7936 192.164 21.1553 193.519 21.1553C194.849 21.1552 195.894 20.7833 196.654 20.0391C197.415 19.2945 197.795 18.2623 197.795 16.9434V12.1572C197.795 10.8384 197.415 9.80702 196.654 9.0625C195.894 8.31805 194.849 7.94538 193.519 7.94531ZM110.955 7.84961C112.214 7.84961 113.236 8.2113 114.021 8.93457C114.828 9.63657 115.232 10.5513 115.232 11.6787C115.232 12.7849 114.828 13.6996 114.021 14.4229C113.236 15.1461 112.214 15.5078 110.955 15.5078C109.72 15.5078 108.697 15.1461 107.89 14.4229C107.082 13.6996 106.679 12.7848 106.679 11.6787C106.679 10.5514 107.082 9.63654 107.89 8.93457C108.697 8.21135 109.72 7.84966 110.955 7.84961ZM69.6387 7.84961C68.1892 7.84962 67.0722 8.22226 66.2881 8.9668C65.5042 9.71131 65.1123 10.7747 65.1123 12.1572V13.083H74.165V12.1572C74.165 10.7747 73.7732 9.71131 72.9893 8.9668C72.2289 8.22225 71.1119 7.84961 69.6387 7.84961Z" fill="black"/>
</svg>
