<svg preserveAspectRatio="none" width="100%" height="100%" overflow="visible" style="display: block;" viewBox="0 0 173.218 46.6719" fill="none" xmlns="http://www.w3.org/2000/svg">
<path id="logo" d="M19.2461 0C26.6866 5.66963e-06 32.7185 6.03127 32.7188 13.4717H25.501C25.5007 10.0173 22.7005 7.2168 19.2461 7.2168H15.6377C10.9873 7.2168 7.2168 10.9873 7.2168 15.6377V31.0342C7.2168 35.6846 10.9873 39.4551 15.6377 39.4551H19.2461C22.7007 39.4551 25.501 36.6538 25.501 33.1992H32.7188C32.7188 40.6399 26.6867 46.6719 19.2461 46.6719H15.6377C7.00124 46.6719 0 39.6706 0 31.0342V15.6377C0 7.00124 7.00124 0 15.6377 0H19.2461ZM52.2061 0C60.8422 0.000363358 67.8438 7.00147 67.8438 15.6377V31.0342C67.8438 39.6704 60.8422 46.6715 52.2061 46.6719H50.7627C42.1262 46.6719 35.125 39.6706 35.125 31.0342V15.6377C35.125 7.00124 42.1262 0 50.7627 0H52.2061ZM87.3311 0C95.9672 0.000365935 102.969 7.00147 102.969 15.6377V31.0342C102.969 39.6704 95.9672 46.6715 87.3311 46.6719H81.0762C75.0971 46.6719 70.25 41.8248 70.25 35.8457V10.8262C70.25 4.84709 75.0971 0 81.0762 0H87.3311ZM122.455 0C131.091 9.94805e-05 138.093 7.00131 138.093 15.6377V31.0342C138.093 39.6706 131.091 46.6718 122.455 46.6719H121.012C112.375 46.6719 105.374 39.6706 105.374 31.0342V15.6377C105.374 7.00124 112.375 0 121.012 0H122.455ZM159.745 0C167.185 0.000269531 173.218 6.03144 173.218 13.4717V19.9678H166.795C170.481 20.865 173.218 24.1857 173.218 28.1475V33.1992C173.218 40.6397 167.186 46.6716 159.745 46.6719H153.971C146.53 46.6716 140.499 40.6397 140.499 33.1992V26.7041H146.921C143.235 25.8069 140.499 22.4862 140.499 18.5244V13.4717C140.499 6.03127 146.531 0 153.972 0H159.745ZM50.7627 7.2168C46.1123 7.2168 42.3418 10.9873 42.3418 15.6377V31.0342C42.3418 35.6846 46.1123 39.4551 50.7627 39.4551H52.2061C56.8561 39.4547 60.626 35.6844 60.626 31.0342V15.6377C60.626 10.9875 56.8561 7.21716 52.2061 7.2168H50.7627ZM81.0762 7.2168C79.0831 7.2168 77.4668 8.83314 77.4668 10.8262V35.8457C77.4668 37.8387 79.0831 39.4551 81.0762 39.4551H87.3311C91.9811 39.4547 95.751 35.6843 95.751 31.0342V15.6377C95.751 10.9875 91.9811 7.21716 87.3311 7.2168H81.0762ZM121.012 7.2168C116.361 7.2168 112.591 10.9873 112.591 15.6377V31.0342C112.591 35.6846 116.361 39.4551 121.012 39.4551H122.455C127.105 39.455 130.875 35.6845 130.875 31.0342V15.6377C130.875 10.9874 127.105 7.2169 122.455 7.2168H121.012ZM147.716 33.1992C147.716 36.6536 150.516 39.4548 153.971 39.4551H159.745C163.199 39.4548 166 36.6536 166 33.1992V28.1475C166 27.4833 165.461 26.9446 164.797 26.9443H148.919C148.511 26.9443 148.109 26.9136 147.716 26.8574V33.1992ZM153.972 7.2168C150.517 7.2168 147.716 10.0173 147.716 13.4717V18.5244C147.716 19.1887 148.255 19.7275 148.919 19.7275H164.797C165.205 19.7276 165.607 19.7573 166 19.8135V13.4717C166 10.0175 163.199 7.21707 159.745 7.2168H153.972Z" fill="var(--fill-0, black)"/>
</svg>
